<svg xmlns="http://www.w3.org/2000/svg" width="64" height="64" viewBox="0 0 64 64"><defs><style>.a{fill:#333;}.b{fill:#fff;}</style></defs><title>favicon</title><path class="a" d="M53.11,0H10.89A10.88,10.88,0,0,0,0,10.89V53.11A10.88,10.88,0,0,0,10.89,64H53.11A10.88,10.88,0,0,0,64,53.11V10.89A10.88,10.88,0,0,0,53.11,0Z"/><path class="b" d="M54,21.3A30.85,30.85,0,0,1,32,50.83a13.69,13.69,0,0,0,3.36-21A20.34,20.34,0,0,0,44,26.27a20.56,20.56,0,0,0,8.47-14.62A30.81,30.81,0,0,1,54,21.3Z"/><path class="b" d="M32,50.83a31.61,31.61,0,0,1-4.49-1.74A30.89,30.89,0,0,1,12.56,33.57a30.95,30.95,0,0,1-1-21.92A20.52,20.52,0,0,0,28.63,29.84a13.72,13.72,0,0,0,3.36,21Z"/></svg>